<svg xmlns="http://www.w3.org/2000/svg" viewBox="0 0 200 200" width="200" height="200">
  <!-- 背景渐变 -->
  <defs>
    <linearGradient id="bgGradient" x1="0%" y1="0%" x2="100%" y2="100%">
      <stop offset="0%" stop-color="#61DAFB" />
      <stop offset="100%" stop-color="#4FC08D" />
    </linearGradient>
  </defs>

  <!-- 容器背景 -->
  <rect x="0" y="0" width="200" height="200" fill="url(#bgGradient)" opacity="0.15" />

  <!-- 主容器 - 简化边框 -->
  <rect x="40" y="50" width="120" height="80" rx="10" fill="#FFFFFF" stroke="#E84A5F" stroke-width="4" />

  <!-- 主要内容区域 - 减少卡片数量 -->
  <rect x="55" y="65" width="90" height="20" rx="4" fill="#4FC08D" />
  <rect x="55" y="95" width="90" height="20" rx="4" fill="#61DAFB" />

  <!-- 无缝连接指示 - 左右半透明内容 -->
  <rect x="15" y="65" width="35" height="20" rx="4" fill="#4FC08D" opacity="0.5" />
  <rect x="15" y="95" width="35" height="20" rx="4" fill="#61DAFB" opacity="0.5" />
  <rect x="150" y="65" width="35" height="20" rx="4" fill="#4FC08D" opacity="0.5" />
  <rect x="150" y="95" width="35" height="20" rx="4" fill="#61DAFB" opacity="0.5" />

  <!-- 简化循环路径 -->
  <path d="M25 140 C25 155 175 155 175 140" stroke="#E84A5F" stroke-width="4" fill="none" />
  <path d="M175 40 C175 25 25 25 25 40" stroke="#E84A5F" stroke-width="4" fill="none" />

  <!-- 动态箭头 - 只保留两个关键箭头 -->
  <path d="M35 140 L25 140 M35 140 L30 135 M35 140 L30 145" fill="none" stroke="#E84A5F" stroke-width="3"
    stroke-linecap="round" />
  <path d="M165 40 L175 40 M165 40 L170 35 M165 40 L170 45" fill="none" stroke="#E84A5F" stroke-width="3"
    stroke-linecap="round" />
</svg>